<mxfile host="app.diagrams.net" agent="Mozilla/5.0 (Windows NT 10.0; Win64; x64) AppleWebKit/537.36 (KHTML, like Gecko) Chrome/134.0.0.0 Safari/537.36" version="26.1.1">
  <diagram name="Page-1" id="WXl9mcu2thcDQVRjniWo">
    <mxGraphModel dx="1050" dy="521" grid="1" gridSize="10" guides="1" tooltips="1" connect="1" arrows="1" fold="1" page="1" pageScale="1" pageWidth="850" pageHeight="1100" math="0" shadow="0">
      <root>
        <mxCell id="0" />
        <mxCell id="1" parent="0" />
        <mxCell id="9B5yho8qlFnO4VWIC743-3" style="edgeStyle=orthogonalEdgeStyle;rounded=0;orthogonalLoop=1;jettySize=auto;html=1;" edge="1" parent="1" source="9B5yho8qlFnO4VWIC743-1" target="9B5yho8qlFnO4VWIC743-2">
          <mxGeometry relative="1" as="geometry" />
        </mxCell>
        <mxCell id="9B5yho8qlFnO4VWIC743-1" value="" style="dashed=0;outlineConnect=0;html=1;align=center;labelPosition=center;verticalLabelPosition=bottom;verticalAlign=top;shape=mxgraph.webicons.onedrive;gradientColor=#DFDEDE" vertex="1" parent="1">
          <mxGeometry x="210" y="11.2" width="260" height="140" as="geometry" />
        </mxCell>
        <mxCell id="9B5yho8qlFnO4VWIC743-8" style="edgeStyle=orthogonalEdgeStyle;rounded=0;orthogonalLoop=1;jettySize=auto;html=1;" edge="1" parent="1" source="9B5yho8qlFnO4VWIC743-2" target="9B5yho8qlFnO4VWIC743-7">
          <mxGeometry relative="1" as="geometry" />
        </mxCell>
        <mxCell id="9B5yho8qlFnO4VWIC743-2" value="" style="verticalLabelPosition=bottom;verticalAlign=top;html=1;shape=mxgraph.basic.polygon;polyCoords=[[0.25,0],[0.75,0],[1,0.25],[1,0.75],[0.75,1],[0.25,1],[0,0.75],[0,0.25]];polyline=0;" vertex="1" parent="1">
          <mxGeometry x="560" y="21.2" width="260" height="120" as="geometry" />
        </mxCell>
        <mxCell id="9B5yho8qlFnO4VWIC743-4" value="&lt;font style=&quot;font-size: 36px;&quot;&gt;&lt;b&gt;BeautifulSoup&lt;/b&gt;&lt;/font&gt;&lt;div&gt;&lt;br&gt;&lt;/div&gt;" style="text;strokeColor=none;align=center;fillColor=none;html=1;verticalAlign=middle;whiteSpace=wrap;rounded=0;" vertex="1" parent="1">
          <mxGeometry x="605" y="54.29999999999999" width="170" height="53.8" as="geometry" />
        </mxCell>
        <mxCell id="9B5yho8qlFnO4VWIC743-7" value="&lt;font style=&quot;font-size: 36px;&quot;&gt;&lt;b&gt;Website Data&lt;/b&gt;&lt;/font&gt;&lt;div&gt;&lt;br&gt;&lt;/div&gt;" style="rounded=0;whiteSpace=wrap;html=1;" vertex="1" parent="1">
          <mxGeometry x="565" y="190" width="250" height="100" as="geometry" />
        </mxCell>
        <mxCell id="9B5yho8qlFnO4VWIC743-9" value="&lt;font style=&quot;font-size: 36px;&quot;&gt;&lt;b&gt;LLM&lt;/b&gt;&lt;/font&gt;" style="ellipse;whiteSpace=wrap;html=1;" vertex="1" parent="1">
          <mxGeometry x="200" y="330" width="300" height="130" as="geometry" />
        </mxCell>
        <mxCell id="9B5yho8qlFnO4VWIC743-10" value="&lt;font style=&quot;font-size: 36px;&quot;&gt;&lt;b&gt;Data With Prompt&lt;/b&gt;&lt;/font&gt;&lt;div&gt;&lt;br&gt;&lt;/div&gt;" style="rounded=1;whiteSpace=wrap;html=1;" vertex="1" parent="1">
          <mxGeometry x="565" y="320" width="265" height="130" as="geometry" />
        </mxCell>
        <mxCell id="9B5yho8qlFnO4VWIC743-11" style="edgeStyle=orthogonalEdgeStyle;rounded=0;orthogonalLoop=1;jettySize=auto;html=1;entryX=0.475;entryY=0.02;entryDx=0;entryDy=0;entryPerimeter=0;" edge="1" parent="1" source="9B5yho8qlFnO4VWIC743-7" target="9B5yho8qlFnO4VWIC743-10">
          <mxGeometry relative="1" as="geometry" />
        </mxCell>
        <mxCell id="9B5yho8qlFnO4VWIC743-12" style="edgeStyle=orthogonalEdgeStyle;rounded=0;orthogonalLoop=1;jettySize=auto;html=1;entryX=1;entryY=0.423;entryDx=0;entryDy=0;entryPerimeter=0;" edge="1" parent="1" source="9B5yho8qlFnO4VWIC743-10" target="9B5yho8qlFnO4VWIC743-9">
          <mxGeometry relative="1" as="geometry" />
        </mxCell>
        <mxCell id="9B5yho8qlFnO4VWIC743-14" value="&lt;b&gt;&lt;font style=&quot;font-size: 18px;&quot;&gt;SUMMARY&lt;/font&gt;&lt;/b&gt;" style="whiteSpace=wrap;html=1;aspect=fixed;" vertex="1" parent="1">
          <mxGeometry x="40" y="188.8" width="141.2" height="141.2" as="geometry" />
        </mxCell>
        <mxCell id="9B5yho8qlFnO4VWIC743-15" style="edgeStyle=orthogonalEdgeStyle;rounded=0;orthogonalLoop=1;jettySize=auto;html=1;entryX=0.364;entryY=1;entryDx=0;entryDy=0;entryPerimeter=0;" edge="1" parent="1" source="9B5yho8qlFnO4VWIC743-9" target="9B5yho8qlFnO4VWIC743-14">
          <mxGeometry relative="1" as="geometry" />
        </mxCell>
      </root>
    </mxGraphModel>
  </diagram>
</mxfile>
